<?xml version="1.0" encoding="iso-8859-1"?>
<!-- Generator: Adobe Illustrator 19.0.0, SVG Export Plug-In . SVG Version: 6.00 Build 0)  -->
<svg version="1.1" id="Capa_1" xmlns="http://www.w3.org/2000/svg" xmlns:xlink="http://www.w3.org/1999/xlink" x="0px" y="0px"
	 viewBox="0 0 511.215 511.215" style="enable-background:new 0 0 511.215 511.215;" xml:space="preserve">
<g>
	<g>
		<g>
			<path d="M288,167.608c4.8,0,8-3.2,8-8v-40h64c3.2,0,5.6-1.6,7.2-4c1.6-2.4,1.6-5.6,0-8l-13.6-20l12.8-19.2
				c1.6-3.2,2.4-5.6,0.8-8.8c-1.6-2.4-4-4-7.2-4h-72c-4.8,0-8,3.2-8,8v96C280,164.408,283.2,167.608,288,167.608z M296,71.608h48.8
				l-8,11.2c-1.6,3.2-1.6,6.4,0.8,9.6l8,11.2H296V71.608z"/>
			<path d="M56,351.608c-17.6,0-32,14.4-32,32c0,17.6,14.4,32,32,32s32-14.4,32-32C88,366.008,73.6,351.608,56,351.608z M56,399.608
				c-8.8,0-16-7.2-16-16s7.2-16,16-16s16,7.2,16,16S64.8,399.608,56,399.608z"/>
			<path d="M136,351.608c-17.6,0-32,14.4-32,32c0,17.6,14.4,32,32,32c17.6,0,32-14.4,32-32C168,366.008,153.6,351.608,136,351.608z
				 M136,399.608c-8.8,0-16-7.2-16-16s7.2-16,16-16s16,7.2,16,16S144.8,399.608,136,399.608z"/>
			<path d="M216,351.608c-17.6,0-32,14.4-32,32c0,17.6,14.4,32,32,32c17.6,0,32-14.4,32-32C248,366.008,233.6,351.608,216,351.608z
				 M216,399.608c-8.8,0-16-7.2-16-16s7.2-16,16-16s16,7.2,16,16S224.8,399.608,216,399.608z"/>
			<path d="M296,351.608c-17.6,0-32,14.4-32,32c0,17.6,14.4,32,32,32c17.6,0,32-14.4,32-32C328,366.008,313.6,351.608,296,351.608z
				 M296,399.608c-8.8,0-16-7.2-16-16s7.2-16,16-16s16,7.2,16,16S304.8,399.608,296,399.608z"/>
			<path d="M376,351.608c-17.6,0-32,14.4-32,32c0,17.6,14.4,32,32,32c17.6,0,32-14.4,32-32C408,366.008,393.6,351.608,376,351.608z
				 M376,399.608c-8.8,0-16-7.2-16-16s7.2-16,16-16s16,7.2,16,16S384.8,399.608,376,399.608z"/>
			<path d="M456,351.608c-17.6,0-32,14.4-32,32c0,17.6,14.4,32,32,32c17.6,0,32-14.4,32-32C488,366.008,473.6,351.608,456,351.608z
				 M456,399.608c-8.8,0-16-7.2-16-16s7.2-16,16-16s16,7.2,16,16S464.8,399.608,456,399.608z"/>
			<path d="M442.4,311.608h-28.8l-37.6-83.2c-2.4-3.2-4.8-4.8-8-4.8h-24v-40c0-2.4-0.8-4-2.4-5.6c-1.6-1.6-3.2-2.4-5.6-2.4h-96
				c-4.8,0-8,3.2-8,8v8H56c-4.8,0-8,3.2-8,8s3.2,8,8,8h176v16h-72c-3.2,0-6.4,2.4-7.2,5.6l-30.4,82.4H69.6
				c-38.4,0-69.6,31.2-69.6,69.6v4c0,39.2,31.2,70.4,69.6,70.4h372c38.4,0,69.6-31.2,69.6-69.6v-4
				C512,342.808,480.8,311.608,442.4,311.608z M248,191.608h80v32h-80V191.608z M442.4,439.608H69.6c-29.6,0-53.6-24-53.6-53.6v-4
				c0-30.4,24-54.4,53.6-54.4H296c4.8,0,8-3.2,8-8s-3.2-8-8-8H139.2l26.4-72H240h96h27.2l4,8H336c-4.8,0-8,3.2-8,8c0,4.8,3.2,8,8,8
				h37.6l7.2,16H352c-4.8,0-8,3.2-8,8s3.2,8,8,8h36l7.2,16H360c-4.8,0-8,3.2-8,8s3.2,8,8,8h48h33.6c29.6,0,53.6,24,53.6,53.6v4.8
				h0.8C496,415.608,472,439.608,442.4,439.608z"/>
			<path d="M24,207.608h8c4.8,0,8-3.2,8-8s-3.2-8-8-8h-8c-4.8,0-8,3.2-8,8S19.2,207.608,24,207.608z"/>
			<path d="M336,311.608h-16c-4.8,0-8,3.2-8,8s3.2,8,8,8h16c4.8,0,8-3.2,8-8S340.8,311.608,336,311.608z"/>
		</g>
	</g>
</g>
<g>
</g>
<g>
</g>
<g>
</g>
<g>
</g>
<g>
</g>
<g>
</g>
<g>
</g>
<g>
</g>
<g>
</g>
<g>
</g>
<g>
</g>
<g>
</g>
<g>
</g>
<g>
</g>
<g>
</g>
</svg>
